<?xml version="1.0" encoding="UTF-8" standalone="no"?>
<!-- Created with Inkscape (http://www.inkscape.org/) -->

<svg
   xmlns:dc="http://purl.org/dc/elements/1.1/"
   xmlns:cc="http://creativecommons.org/ns#"
   xmlns:rdf="http://www.w3.org/1999/02/22-rdf-syntax-ns#"
   xmlns:svg="http://www.w3.org/2000/svg"
   xmlns="http://www.w3.org/2000/svg"
   xmlns:sodipodi="http://sodipodi.sourceforge.net/DTD/sodipodi-0.dtd"
   xmlns:inkscape="http://www.inkscape.org/namespaces/inkscape"
   width="16"
   height="16"
   id="svg3049"
   version="1.1"
   inkscape:version="0.48.5 r10040"
   sodipodi:docname="16-actions-kexi_edit-table-delete-row.svg"
   inkscape:export-filename="/tmp/a.png"
   inkscape:export-xdpi="90"
   inkscape:export-ydpi="90">
  <defs
     id="defs3051">
    <inkscape:perspective
       sodipodi:type="inkscape:persp3d"
       inkscape:vp_x="0 : 12 : 1"
       inkscape:vp_y="0 : 1000 : 0"
       inkscape:vp_z="24 : 12 : 1"
       inkscape:persp3d-origin="12 : 8 : 1"
       id="perspective4146" />
    <inkscape:perspective
       id="perspective4146-5"
       inkscape:persp3d-origin="12 : 8 : 1"
       inkscape:vp_z="24 : 12 : 1"
       inkscape:vp_y="0 : 1000 : 0"
       inkscape:vp_x="0 : 12 : 1"
       sodipodi:type="inkscape:persp3d" />
  </defs>
  <sodipodi:namedview
     id="base"
     pagecolor="#ffffff"
     bordercolor="#666666"
     borderopacity="1.0"
     inkscape:pageopacity="0.0"
     inkscape:pageshadow="2"
     inkscape:zoom="64"
     inkscape:cx="7.822468"
     inkscape:cy="8.0193458"
     inkscape:document-units="px"
     inkscape:current-layer="layer1"
     showgrid="true"
     fit-margin-top="0"
     fit-margin-left="0"
     fit-margin-right="0"
     fit-margin-bottom="0"
     inkscape:window-width="1280"
     inkscape:window-height="960"
     inkscape:window-x="-8"
     inkscape:window-y="-3"
     inkscape:window-maximized="1"
     inkscape:showpageshadow="false"
     borderlayer="true"
     inkscape:snap-bbox="true"
     inkscape:snap-global="true"
     showguides="true">
    <inkscape:grid
       type="xygrid"
       id="grid4085" />
    <sodipodi:guide
       position="2,11"
       orientation="12,0"
       id="guide4075" />
    <sodipodi:guide
       position="17,2"
       orientation="0,12"
       id="guide4077" />
    <sodipodi:guide
       position="14,13"
       orientation="-12,0"
       id="guide4079" />
    <sodipodi:guide
       position="0,14"
       orientation="0,-12"
       id="guide4081" />
  </sodipodi:namedview>
  <metadata
     id="metadata3054">
    <rdf:RDF>
      <cc:Work
         rdf:about="">
        <dc:format>image/svg+xml</dc:format>
        <dc:type
           rdf:resource="http://purl.org/dc/dcmitype/StillImage" />
        <dc:title></dc:title>
      </cc:Work>
    </rdf:RDF>
  </metadata>
  <g
     inkscape:label="Capa 1"
     inkscape:groupmode="layer"
     id="layer1"
     transform="translate(-421.71429,-531.79074)">
    <path
       style="color:#000000;fill:#4d4d4d;fill-opacity:1;fill-rule:nonzero;stroke:none;stroke-width:2;marker:none;visibility:visible;display:inline;overflow:visible;enable-background:accumulate"
       d="M 2 2 L 2 14 L 14 14 L 14 2 L 2 2 z M 3 3 L 6 3 L 6 4 L 3 4 L 3 3 z M 7 3 L 9 3 L 9 4 L 7 4 L 7 3 z M 10 3 L 13 3 L 13 4 L 10 4 L 10 3 z M 3 5 L 6 5 L 6 6 L 7 6 L 7 5 L 9 5 L 9 6 L 10 6 L 10 5 L 13 5 L 13 6 L 13 9 L 13 10 L 13 11 L 10 11 L 10 10 L 9 10 L 9 11 L 7 11 L 7 10 L 6 10 L 6 11 L 3 11 L 3 10 L 3 9 L 3 8 L 3 7 L 3 6 L 3 5 z M 3 12 L 6 12 L 6 13 L 3 13 L 3 12 z M 7 12 L 9 12 L 9 13 L 7 13 L 7 12 z M 10 12 L 13 12 L 13 13 L 10 13 L 10 12 z "
       transform="translate(421.71429,531.79074)"
       id="rect6699" />
    <g
       transform="translate(-38.260002,-6.3485488)"
       id="layer1-0"
       inkscape:label="Capa 1" />
    <path
       style="fill:#da4453;fill-opacity:1;stroke:none"
       d="M 3,6 3,7 3.4594623,7 5.5375873,9.015625 3,9 3,10 13,10 13,9 12.516735,9 10.547985,7 13,7 13,6 z M 5.0222876,7 8.9962087,7 10.964959,9 7.0341213,9.015625 z"
       id="rect4197"
       inkscape:connector-curvature="0"
       sodipodi:nodetypes="cccccccccccccccccc"
       transform="translate(421.71429,531.79074)" />
  </g>
</svg>
