<?xml version="1.0" encoding="UTF-8" standalone="no"?>
<svg
   xmlns:dc="http://purl.org/dc/elements/1.1/"
   xmlns:cc="http://creativecommons.org/ns#"
   xmlns:rdf="http://www.w3.org/1999/02/22-rdf-syntax-ns#"
   xmlns:svg="http://www.w3.org/2000/svg"
   xmlns="http://www.w3.org/2000/svg"
   xmlns:sodipodi="http://sodipodi.sourceforge.net/DTD/sodipodi-0.dtd"
   xmlns:inkscape="http://www.inkscape.org/namespaces/inkscape"
   viewBox="0 0 16 16"
   id="svg2"
   version="1.1"
   inkscape:version="0.91 r13725"
   sodipodi:docname="imagebox.svg">
  <metadata
     id="metadata10">
    <rdf:RDF>
      <cc:Work
         rdf:about="">
        <dc:format>image/svg+xml</dc:format>
        <dc:type
           rdf:resource="http://purl.org/dc/dcmitype/StillImage" />
        <dc:title></dc:title>
      </cc:Work>
    </rdf:RDF>
  </metadata>
  <sodipodi:namedview
     pagecolor="#ffffff"
     bordercolor="#666666"
     borderopacity="1"
     objecttolerance="10000"
     gridtolerance="10000"
     guidetolerance="10000"
     inkscape:pageopacity="0"
     inkscape:pageshadow="2"
     inkscape:window-width="640"
     inkscape:window-height="480"
     id="namedview8"
     showgrid="true"
     inkscape:snap-bbox="false"
     inkscape:snap-global="true"
     inkscape:snap-grids="true"
     inkscape:snap-nodes="true"
     inkscape:zoom="32"
     inkscape:cx="9.5536935"
     inkscape:cy="5.3786469"
     inkscape:current-layer="svg2"
     borderlayer="false"
     inkscape:snap-to-guides="true"
     inkscape:snap-page="false"
     inkscape:snap-intersection-paths="false">
    <inkscape:grid
       type="xygrid"
       id="grid4144" />
  </sodipodi:namedview>
  <defs
     id="defs3051">
    <style
       type="text/css"
       id="current-color-scheme">
      .ColorScheme-Text {
        color:#4d4d4d;
      }
      </style>
  </defs>
  <path
     style="fill:#4d4d4d;fill-opacity:1;stroke:none"
     d="M 2 2 L 2 14 L 14 14 L 14 2 L 2 2 z M 12.931641 3 L 12.976562 9.484375 L 10.507812 7 L 10.5 7.0078125 L 10.494141 7 L 7.1484375 10.34375 L 5.6523438 8.8886719 L 5.6464844 8.8964844 L 5.6386719 8.8886719 L 3.0039062 11.525391 L 2.9941406 3.0351562 L 12.931641 3 z M 6 4 C 4.8954305 4 4 4.9305869 4 6.0351562 C 4 7.1397257 4.8954305 8 6 8 C 7.1045695 8 8 7.1045695 8 6 C 8 4.8954305 7.1045695 4 6 4 z M 6 5 A 1 1 0 0 1 7 6 A 1 1 0 0 1 6 7 A 1 1 0 0 1 5 6 A 1 1 0 0 1 6 5 z M 10.5 8.40625 L 12.986328 10.912109 L 13 13 L 3.2421875 12.964844 L 5.7988281 10.408203 L 7.1484375 11.757812 L 10.5 8.40625 z "
     id="path6" />
</svg>
