<?xml version="1.0" encoding="UTF-8" standalone="no"?>
<svg
   xmlns:dc="http://purl.org/dc/elements/1.1/"
   xmlns:cc="http://creativecommons.org/ns#"
   xmlns:rdf="http://www.w3.org/1999/02/22-rdf-syntax-ns#"
   xmlns:svg="http://www.w3.org/2000/svg"
   xmlns="http://www.w3.org/2000/svg"
   xmlns:sodipodi="http://sodipodi.sourceforge.net/DTD/sodipodi-0.dtd"
   xmlns:inkscape="http://www.inkscape.org/namespaces/inkscape"
   viewBox="0 0 16 16"
   id="svg2"
   version="1.1"
   inkscape:version="0.91 r13725"
   sodipodi:docname="mode-selector-design.svg">
  <metadata
     id="metadata10">
    <rdf:RDF>
      <cc:Work
         rdf:about="">
        <dc:format>image/svg+xml</dc:format>
        <dc:type
           rdf:resource="http://purl.org/dc/dcmitype/StillImage" />
        <dc:title />
      </cc:Work>
    </rdf:RDF>
  </metadata>
  <sodipodi:namedview
     pagecolor="#ffffff"
     bordercolor="#666666"
     borderopacity="1"
     objecttolerance="10000"
     gridtolerance="10000"
     guidetolerance="10000"
     inkscape:pageopacity="0"
     inkscape:pageshadow="2"
     inkscape:window-width="640"
     inkscape:window-height="480"
     id="namedview8"
     showgrid="true"
     inkscape:snap-bbox="false"
     inkscape:snap-global="true"
     inkscape:snap-grids="true"
     inkscape:snap-nodes="true"
     inkscape:zoom="64"
     inkscape:cx="10.378687"
     inkscape:cy="10.917784"
     inkscape:current-layer="svg2"
     borderlayer="false"
     inkscape:snap-to-guides="true"
     inkscape:snap-page="false"
     inkscape:snap-intersection-paths="true"
     inkscape:object-nodes="true"
     inkscape:object-paths="true"
     inkscape:snap-midpoints="true"
     inkscape:snap-smooth-nodes="true">
    <inkscape:grid
       type="xygrid"
       id="grid4144" />
  </sodipodi:namedview>
  <defs
     id="defs3051">
    <style
       type="text/css"
       id="current-color-scheme">
      .ColorScheme-Text {
        color:#4d4d4d;
      }
      </style>
  </defs>
  <rect
     width="0"
     x="-59.330818"
     y="-44.248516"
     height="11.001044"
     style="fill:#4d4d4d;fill-opacity:1"
     id="rect4035" />
  <rect
     width="0"
     x="-54.11039"
     y="-27.320555"
     height="11.001044"
     style="fill:#4d4d4d;fill-opacity:1"
     id="rect4035-8" />
  <rect
     width="0"
     x="-52.75042"
     y="-28.116102"
     height="11.001044"
     style="fill:#4d4d4d;fill-opacity:1"
     id="rect4035-0" />
  <rect
     width="0"
     x="-59.330818"
     y="-44.248516"
     height="11.001044"
     style="fill:#4d4d4d;fill-opacity:1"
     id="rect4035-3" />
  <rect
     width="0"
     x="-54.11039"
     y="-27.320555"
     height="11.001044"
     style="fill:#4d4d4d;fill-opacity:1"
     id="rect4035-8-9" />
  <rect
     width="0"
     x="-52.75042"
     y="-28.116102"
     height="11.001044"
     style="fill:#4d4d4d;fill-opacity:1"
     id="rect4035-0-4" />
  <rect
     width="0"
     x="-59.330818"
     y="-44.248516"
     height="11.001044"
     style="fill:#4d4d4d;fill-opacity:1"
     id="rect4035-2" />
  <rect
     width="0"
     x="-54.11039"
     y="-27.320555"
     height="11.001044"
     style="fill:#4d4d4d;fill-opacity:1"
     id="rect4035-8-99" />
  <rect
     width="0"
     x="-52.75042"
     y="-28.116102"
     height="11.001044"
     style="fill:#4d4d4d;fill-opacity:1"
     id="rect4035-0-43" />
  <rect
     width="0"
     x="-59.330818"
     y="-44.248516"
     height="11.001044"
     style="fill:#4d4d4d;fill-opacity:1"
     id="rect4035-3-9" />
  <rect
     width="0"
     x="-54.11039"
     y="-27.320555"
     height="11.001044"
     style="fill:#4d4d4d;fill-opacity:1"
     id="rect4035-8-9-9" />
  <rect
     width="0"
     x="-52.75042"
     y="-28.116102"
     height="11.001044"
     style="fill:#4d4d4d;fill-opacity:1"
     id="rect4035-0-4-4" />
  <rect
     width="0"
     x="-46.463631"
     y="-41.412579"
     height="11.001044"
     style="fill:#4d4d4d;fill-opacity:1"
     id="rect4035-6" />
  <rect
     width="0"
     x="-41.243198"
     y="-24.484617"
     height="11.001044"
     style="fill:#4d4d4d;fill-opacity:1"
     id="rect4035-8-8" />
  <rect
     width="0"
     x="-39.883232"
     y="-25.280165"
     height="11.001044"
     style="fill:#4d4d4d;fill-opacity:1"
     id="rect4035-0-6" />
  <path
     inkscape:connector-curvature="0"
     style="fill:#4d4d4d;fill-opacity:1;stroke-width:6"
     id="rect5677"
     d="m 2,9 -1e-7,5 L 14,14 l 0,-5 -3,0 0,1 2,0 0,3 -2,0 0,-1 -1,0 0,1 -1,0 0,-2 -1,0 0,2 -1,0 0,-1 -1,0 0,1 -1,0 0,-2 -1,0 0,2 -1,0 0,-3 1,0 0,-1 z"
     sodipodi:nodetypes="ccccccccccccccccccccccccccccc" />
  <path
     inkscape:connector-curvature="0"
     style="fill:#4d4d4d;fill-opacity:1;fill-rule:evenodd"
     id="path5693"
     d="M 7.3125,10 13.90625,3.46875 12.5,2.0625 6,8.734375 5.9999999,10 Z"
     sodipodi:nodetypes="cccccc" />
</svg>
