<?xml version="1.0" encoding="UTF-8" standalone="no"?>
<!-- Created with Inkscape (http://www.inkscape.org/) -->

<svg
   xmlns:dc="http://purl.org/dc/elements/1.1/"
   xmlns:cc="http://creativecommons.org/ns#"
   xmlns:rdf="http://www.w3.org/1999/02/22-rdf-syntax-ns#"
   xmlns:svg="http://www.w3.org/2000/svg"
   xmlns="http://www.w3.org/2000/svg"
   xmlns:sodipodi="http://sodipodi.sourceforge.net/DTD/sodipodi-0.dtd"
   xmlns:inkscape="http://www.inkscape.org/namespaces/inkscape"
   width="32"
   height="32"
   id="svg2"
   version="1.1"
   inkscape:version="0.48.5 r10040"
   viewBox="0 0 32 32"
   sodipodi:docname="32-actions-kexi_edit-table-insert-row.svg"
   inkscape:export-filename="/tmp/32-actions-kexi_edit-table-clear.png"
   inkscape:export-xdpi="90"
   inkscape:export-ydpi="90">
  <defs
     id="defs4" />
  <sodipodi:namedview
     id="base"
     pagecolor="#ffffff"
     bordercolor="#666666"
     borderopacity="1.0"
     inkscape:pageopacity="0.0"
     inkscape:pageshadow="2"
     inkscape:zoom="22.627417"
     inkscape:cx="13.409779"
     inkscape:cy="19.937072"
     inkscape:document-units="px"
     inkscape:current-layer="layer1"
     showgrid="true"
     inkscape:showpageshadow="false"
     borderlayer="true"
     inkscape:window-width="1280"
     inkscape:window-height="960"
     inkscape:window-x="-8"
     inkscape:window-y="-3"
     inkscape:window-maximized="1"
     units="px"
     showguides="true"
     inkscape:guide-bbox="true"
     inkscape:snap-global="true">
    <sodipodi:guide
       position="2,20.000017"
       orientation="18,0"
       id="guide4085" />
    <sodipodi:guide
       position="2,2.0000174"
       orientation="0,18"
       id="guide4087" />
    <sodipodi:guide
       position="28,21"
       orientation="-18,0"
       id="guide4089" />
    <sodipodi:guide
       position="4,15"
       orientation="16,0"
       id="guide4093" />
    <sodipodi:guide
       position="8,4"
       orientation="0,16"
       id="guide4095" />
    <sodipodi:guide
       position="19,3.0000174"
       orientation="-16,0"
       id="guide4097" />
    <inkscape:grid
       type="xygrid"
       id="grid4101"
       empspacing="5"
       visible="true"
       enabled="true"
       snapvisiblegridlinesonly="true" />
    <sodipodi:guide
       orientation="0,1"
       position="-5,6"
       id="guide3022" />
    <sodipodi:guide
       position="4,29"
       orientation="2,0"
       id="guide5035" />
    <sodipodi:guide
       position="4,27"
       orientation="0,1.09375"
       id="guide5037" />
    <sodipodi:guide
       position="5.09375,27"
       orientation="22.0009,23.851901"
       id="guide5039" />
    <sodipodi:guide
       position="28.945651,4.9991"
       orientation="-0.0009,9.054349"
       id="guide5041" />
    <sodipodi:guide
       position="28,27"
       orientation="-2,0"
       id="guide5043" />
    <sodipodi:guide
       position="28,29"
       orientation="0,-24"
       id="guide5045" />
    <sodipodi:guide
       position="31.279489,5.0015"
       orientation="-21.9985,-23.947458"
       id="guide5047" />
    <sodipodi:guide
       position="7.3320312,27"
       orientation="0,4.1874998"
       id="guide5049" />
  </sodipodi:namedview>
  <metadata
     id="metadata7">
    <rdf:RDF>
      <cc:Work
         rdf:about="">
        <dc:format>image/svg+xml</dc:format>
        <dc:type
           rdf:resource="http://purl.org/dc/dcmitype/StillImage" />
        <dc:title></dc:title>
      </cc:Work>
    </rdf:RDF>
  </metadata>
  <g
     inkscape:label="Capa 1"
     inkscape:groupmode="layer"
     id="layer1"
     transform="translate(0,-1020.3622)"
     style="display:inline">
    <path
       style="color:#000000;fill:#4d4d4d;fill-opacity:1;fill-rule:nonzero;stroke:none;stroke-width:2;marker:none;visibility:visible;display:inline;overflow:visible;enable-background:accumulate"
       d="M 2 3 L 2 29 L 30 29 L 30 3 L 2 3 z M 4 5 L 11 5 L 13 5 L 19 5 L 21 5 L 28 5 L 28 7 L 28 9 L 28 11 L 28 13 L 28 15 L 28 17 L 28 19 L 28 21 L 28 23 L 28 25 L 28 27 L 21 27 L 19 27 L 13 27 L 11 27 L 4 27 L 4 25 L 4 23 L 4 21 L 4 19 L 4 17 L 4 15 L 4 13 L 4 11 L 4 9 L 4 7 L 4 5 z "
       transform="translate(0,1020.3622)"
       id="path4413" />
    <path
       style="color:#000000;fill:#da4453;fill-opacity:1;fill-rule:evenodd;stroke:none;stroke-width:5;marker:none;visibility:visible;display:inline;overflow:visible;enable-background:accumulate"
       d="M 4 3 L 4 5 L 5.09375 5 L 28 26.125 L 28 23.96875 L 7.34375 5 L 11.59375 5 L 28 20.125 L 28 18 L 13.84375 5 L 18.125 5 L 28 14.125 L 28 12 L 20.375 5 L 24.65625 5 L 28 8.09375 L 28 6.03125 L 26.875 5 L 28 5 L 28 3 L 4 3 z M 4 7.90625 L 4 10 L 22.4375 27 L 18.25 27 L 4 13.90625 L 4 16 L 15.9375 27 L 11.75 27 L 4 19.875 L 4 22 L 9.40625 27 L 4 27 L 4 29 L 28 29 L 28 27 L 24.78125 27 L 4 7.90625 z "
       transform="translate(0,1020.3622)"
       id="rect5051" />
    <rect
       style="color:#000000;fill:#da4453;fill-opacity:1;fill-rule:evenodd;stroke:none;stroke-width:5;marker:none;visibility:visible;display:inline;overflow:visible;enable-background:accumulate"
       id="rect5636"
       width="24"
       height="2"
       x="4"
       y="1029.3622" />
    <rect
       y="1035.3622"
       x="4"
       height="2"
       width="24"
       id="rect5638"
       style="color:#000000;fill:#da4453;fill-opacity:1;fill-rule:evenodd;stroke:none;stroke-width:5;marker:none;visibility:visible;display:inline;overflow:visible;enable-background:accumulate" />
    <rect
       style="color:#000000;fill:#da4453;fill-opacity:1;fill-rule:evenodd;stroke:none;stroke-width:5;marker:none;visibility:visible;display:inline;overflow:visible;enable-background:accumulate"
       id="rect5640"
       width="24"
       height="2"
       x="4"
       y="1041.3622" />
  </g>
</svg>
