<?xml version="1.0" encoding="UTF-8" standalone="no"?>
<!-- Created with Inkscape (http://www.inkscape.org/) -->

<svg
   xmlns:dc="http://purl.org/dc/elements/1.1/"
   xmlns:cc="http://creativecommons.org/ns#"
   xmlns:rdf="http://www.w3.org/1999/02/22-rdf-syntax-ns#"
   xmlns:svg="http://www.w3.org/2000/svg"
   xmlns="http://www.w3.org/2000/svg"
   xmlns:sodipodi="http://sodipodi.sourceforge.net/DTD/sodipodi-0.dtd"
   xmlns:inkscape="http://www.inkscape.org/namespaces/inkscape"
   width="32"
   height="32"
   id="svg5453"
   version="1.1"
   inkscape:version="0.91 r13725"
   sodipodi:docname="mode-selector-help.svg"
   viewBox="0 0 32 32">
  <defs
     id="defs5455">
    <style
       type="text/css"
       id="current-color-scheme">
      .ColorScheme-Text {
        color:#4d4d4d;
      }
      .ColorScheme-Background {
        color:#eff0f1;
      }
      .ColorScheme-Highlight {
        color:#3daee9;
      }
      .ColorScheme-ViewText {
        color:#31363b;
      }
      .ColorScheme-ViewBackground {
        color:#fcfcfc;
      }
      .ColorScheme-ViewHover {
        color:#93cee9;
      }
      .ColorScheme-ViewFocus{
        color:#3daee9;
      }
      .ColorScheme-ButtonText {
        color:#31363b;
      }
      .ColorScheme-ButtonBackground {
        color:#eff0f1;
      }
      .ColorScheme-ButtonHover {
        color:#93cee9;
      }
      .ColorScheme-ButtonFocus{
        color:#3daee9;
      }
      </style>
  </defs>
  <sodipodi:namedview
     id="base"
     pagecolor="#ffffff"
     bordercolor="#666666"
     borderopacity="1.0"
     inkscape:pageopacity="0"
     inkscape:pageshadow="2"
     inkscape:zoom="11.313708"
     inkscape:cx="0.32820471"
     inkscape:cy="19.885342"
     inkscape:document-units="px"
     inkscape:current-layer="layer1"
     showgrid="true"
     fit-margin-top="0"
     fit-margin-left="0"
     fit-margin-right="0"
     fit-margin-bottom="0"
     inkscape:window-width="1920"
     inkscape:window-height="957"
     inkscape:window-x="-4"
     inkscape:window-y="0"
     inkscape:window-maximized="1"
     inkscape:showpageshadow="false"
     borderlayer="true"
     showguides="true"
     inkscape:guide-bbox="true"
     inkscape:object-nodes="true"
     inkscape:snap-bbox="true"
     inkscape:snap-global="false"
     inkscape:snap-nodes="true"
     inkscape:snap-others="false">
    <inkscape:grid
       type="xygrid"
       id="grid4063" />
    <sodipodi:guide
       position="4,24"
       orientation="28,0"
       id="guide4280" />
    <sodipodi:guide
       position="13,4"
       orientation="0,28"
       id="guide4282" />
    <sodipodi:guide
       position="28.019106,26.892155"
       orientation="-28,0"
       id="guide4284" />
    <sodipodi:guide
       position="15,28"
       orientation="0,-28"
       id="guide4286" />
  </sodipodi:namedview>
  <metadata
     id="metadata5458">
    <rdf:RDF>
      <cc:Work
         rdf:about="">
        <dc:format>image/svg+xml</dc:format>
        <dc:type
           rdf:resource="http://purl.org/dc/dcmitype/StillImage" />
        <dc:title />
      </cc:Work>
    </rdf:RDF>
  </metadata>
  <g
     inkscape:label="Capa 1"
     inkscape:groupmode="layer"
     id="layer1"
     transform="translate(-384.57143,-515.798)">
    <path
       inkscape:connector-curvature="0"
       style="color:#4d4d4d;fill:currentColor;fill-opacity:1;fill-rule:evenodd;stroke:none"
       d="m 400.57143,519.798 c -6.62742,0 -12,5.37258 -12,12 0,6.62742 5.37258,12 12,12 6.62742,0 12,-5.37258 12,-12 0,-6.62742 -5.37258,-12 -12,-12 z m 0,1 c 5.52285,0 11,5.47715 11,11 0,5.52285 -5.47715,11 -11,11 -5.52285,0 -11,-5.47715 -11,-11 0,-5.52285 5.47715,-11 11,-11 z"
       id="path4140"
       class="ColorScheme-Text"
       sodipodi:nodetypes="ssssssssss" />
    <path
       style="fill:#4d4d4d;fill-opacity:1;stroke-width:2;stroke-linecap:round;stroke-linejoin:round"
       id="rect4169"
       d="m 400.58839,525.798 c -0.97222,0 -1.88002,0.34094 -2.51952,0.98048 -0.63954,0.63954 -0.82422,1.18793 -0.96485,2.05077 l 2,0 c 0.17188,-0.37153 0.14337,-0.40123 0.37891,-0.63673 0.23548,-0.23546 0.57768,-0.39452 1.10546,-0.39452 0.52778,0 0.87,0.159 1.10548,0.39452 0.23546,0.2355 0.39452,0.5777 0.39452,1.10548 0,0.45834 -0.0904,0.65332 -0.21084,0.82616 -0.1206,0.173 -0.31816,0.33608 -0.6123,0.542 -0.29418,0.20584 -0.68494,0.44316 -1.04592,0.86428 -0.36094,0.4211 -0.63084,1.05924 -0.63084,1.76756 l 0,0.5 1.99998,0 0,-0.5 c 0,-0.29168 0.0416,-0.34104 0.1494,-0.4668 0.1078,-0.1258 0.343,-0.29478 0.67384,-0.52638 0.3308,-0.23156 0.75828,-0.53708 1.10642,-1.03612 0.34818,-0.49902 0.57032,-1.17904 0.57032,-1.9707 0,-0.97222 -0.34094,-1.87998 -0.98048,-2.51952 -0.6395,-0.63954 -1.54728,-0.98048 -2.51952,-0.98048 z m -0.99998,10 0,2 1.99998,0 0,-2 z"
       inkscape:connector-curvature="0"
       sodipodi:nodetypes="sccccssscccsccscccscssccccc" />
  </g>
</svg>
