<?xml version="1.0" encoding="UTF-8" standalone="no"?>
<!-- Created with Inkscape (http://www.inkscape.org/) -->

<svg
   xmlns:dc="http://purl.org/dc/elements/1.1/"
   xmlns:cc="http://creativecommons.org/ns#"
   xmlns:rdf="http://www.w3.org/1999/02/22-rdf-syntax-ns#"
   xmlns:svg="http://www.w3.org/2000/svg"
   xmlns="http://www.w3.org/2000/svg"
   xmlns:sodipodi="http://sodipodi.sourceforge.net/DTD/sodipodi-0.dtd"
   xmlns:inkscape="http://www.inkscape.org/namespaces/inkscape"
   width="22"
   height="22"
   id="svg3760"
   version="1.1"
   inkscape:version="0.48.5 r10040"
   sodipodi:docname="22-actions-kexi_edit-table-delete-row.svg">
  <defs
     id="defs3762" />
  <sodipodi:namedview
     id="base"
     pagecolor="#ffffff"
     bordercolor="#666666"
     borderopacity="1.0"
     inkscape:pageopacity="0.0"
     inkscape:pageshadow="2"
     inkscape:zoom="45.254834"
     inkscape:cx="9.0806689"
     inkscape:cy="10.166154"
     inkscape:document-units="px"
     inkscape:current-layer="layer1"
     showgrid="true"
     fit-margin-top="0"
     fit-margin-left="0"
     fit-margin-right="0"
     fit-margin-bottom="0"
     inkscape:window-width="1280"
     inkscape:window-height="960"
     inkscape:window-x="-8"
     inkscape:window-y="-3"
     inkscape:window-maximized="1"
     inkscape:showpageshadow="false"
     showguides="true"
     inkscape:guide-bbox="true"
     inkscape:snap-global="false">
    <sodipodi:guide
       position="4.1796875e-06,21.999997"
       orientation="22,0"
       id="guide4116" />
    <sodipodi:guide
       position="4.1796875e-06,-2.6953124e-06"
       orientation="0,22"
       id="guide4118" />
    <sodipodi:guide
       position="22.000004,-2.6953124e-06"
       orientation="-22,0"
       id="guide4120" />
    <sodipodi:guide
       position="22.000004,21.999997"
       orientation="0,-22"
       id="guide4122" />
    <sodipodi:guide
       position="2.0000042,19.999997"
       orientation="18,0"
       id="guide4124" />
    <sodipodi:guide
       position="20.000004,1.9999973"
       orientation="-18,0"
       id="guide4128" />
    <sodipodi:guide
       position="20.000004,19.999997"
       orientation="0,-18"
       id="guide4130" />
    <sodipodi:guide
       position="3.0000042,18.999997"
       orientation="16,0"
       id="guide4132" />
    <sodipodi:guide
       position="3.0000042,2.9999973"
       orientation="0,16"
       id="guide4134" />
    <sodipodi:guide
       position="19.000004,2.9999973"
       orientation="-16,0"
       id="guide4136" />
    <sodipodi:guide
       position="45,19"
       orientation="0,-16"
       id="guide4138" />
    <inkscape:grid
       type="xygrid"
       id="grid4140"
       empspacing="5"
       visible="true"
       enabled="true"
       snapvisiblegridlinesonly="true" />
  </sodipodi:namedview>
  <metadata
     id="metadata3765">
    <rdf:RDF>
      <cc:Work
         rdf:about="">
        <dc:format>image/svg+xml</dc:format>
        <dc:type
           rdf:resource="http://purl.org/dc/dcmitype/StillImage" />
        <dc:title></dc:title>
      </cc:Work>
    </rdf:RDF>
  </metadata>
  <g
     inkscape:label="Capa 1"
     inkscape:groupmode="layer"
     id="layer1"
     transform="translate(-553.72253,-583.11926)">
    <g
       transform="translate(98.74824,50.97997)"
       id="layer1-0"
       inkscape:label="Capa 1" />
    <path
       style="color:#000000;fill:#4d4d4d;fill-opacity:1;fill-rule:nonzero;stroke:none;stroke-width:2;marker:none;visibility:visible;display:inline;overflow:visible;enable-background:accumulate"
       d="M 3 3 L 3 19 L 19 19 L 19 3 L 3 3 z M 4 4 L 8 4 L 8 5 L 4 5 L 4 4 z M 9 4 L 13 4 L 13 5 L 9 5 L 9 4 z M 14 4 L 18 4 L 18 5 L 14 5 L 14 4 z M 4 6 L 8 6 L 8 7 L 4 7 L 4 6 z M 9 6 L 13 6 L 13 7 L 9 7 L 9 6 z M 14 6 L 18 6 L 18 7 L 14 7 L 14 6 z M 4 8 L 8 8 L 8 9 L 9 9 L 9 8 L 13 8 L 13 9 L 14 9 L 14 8 L 18 8 L 18 9 L 18 10 L 18 11 L 18 12 L 18 14 L 14 14 L 14 12 L 13 12 L 13 14 L 9 14 L 9 12 L 8 12 L 8 14 L 4 14 L 4 12 L 4 11 L 4 10 L 4 9 L 4 8 z M 4 15 L 8 15 L 8 16 L 4 16 L 4 15 z M 9 15 L 13 15 L 13 16 L 9 16 L 9 15 z M 14 15 L 18 15 L 18 16 L 14 16 L 14 15 z M 4 17 L 8 17 L 8 18 L 4 18 L 4 17 z M 9 17 L 13 17 L 13 18 L 9 18 L 9 17 z M 14 17 L 18 17 L 18 18 L 14 18 L 14 17 z "
       transform="translate(553.72253,583.11926)"
       id="path4413" />
    <g
       transform="matrix(1.3333333,0,0,1.3333333,-42.243186,-134.06646)"
       id="layer1-0-5"
       inkscape:label="Capa 1" />
    <path
       style="fill:#1d99f3;fill-opacity:1;stroke:none;display:inline"
       d="m 557.72253,596.11926 c 4.37106,0 9.90455,0 14,0 0,-0.31112 0,-0.68888 0,-1 l -1.06296,0 -2.16291,-2 3.22587,0 0,-1 -14,0 0,1 0.52387,0 2.12519,2 -2.64906,0 z m 1.86428,-3 3.46416,0 2.20637,2 -3.54535,0 z m 4.80456,0 2.76488,0 2.16291,2 -2.72141,0 z"
       id="rect4197"
       inkscape:connector-curvature="0"
       sodipodi:nodetypes="ccccccccccccccccccccccc" />
  </g>
</svg>
