<?xml version="1.0" encoding="UTF-8" standalone="no"?>
<!-- Created with Inkscape (http://www.inkscape.org/) -->

<svg
   xmlns:dc="http://purl.org/dc/elements/1.1/"
   xmlns:cc="http://creativecommons.org/ns#"
   xmlns:rdf="http://www.w3.org/1999/02/22-rdf-syntax-ns#"
   xmlns:svg="http://www.w3.org/2000/svg"
   xmlns="http://www.w3.org/2000/svg"
   xmlns:sodipodi="http://sodipodi.sourceforge.net/DTD/sodipodi-0.dtd"
   xmlns:inkscape="http://www.inkscape.org/namespaces/inkscape"
   width="22"
   height="22"
   id="svg3760"
   version="1.1"
   inkscape:version="0.91 r13725"
   sodipodi:docname="edit-table-clear.svg">
  <defs
     id="defs3762" />
  <sodipodi:namedview
     id="base"
     pagecolor="#ffffff"
     bordercolor="#666666"
     borderopacity="1.0"
     inkscape:pageopacity="0.0"
     inkscape:pageshadow="2"
     inkscape:zoom="32"
     inkscape:cx="11.62139"
     inkscape:cy="12.038682"
     inkscape:document-units="px"
     inkscape:current-layer="layer1"
     showgrid="true"
     fit-margin-top="0"
     fit-margin-left="0"
     fit-margin-right="0"
     fit-margin-bottom="0"
     inkscape:window-width="1280"
     inkscape:window-height="960"
     inkscape:window-x="-8"
     inkscape:window-y="-3"
     inkscape:window-maximized="1"
     inkscape:showpageshadow="false"
     showguides="true"
     inkscape:guide-bbox="true"
     inkscape:snap-global="true"
     inkscape:object-nodes="true">
    <sodipodi:guide
       position="4.1796875e-06,21.999997"
       orientation="22,0"
       id="guide4116" />
    <sodipodi:guide
       position="4.1796875e-06,-2.6953124e-06"
       orientation="0,22"
       id="guide4118" />
    <sodipodi:guide
       position="22.000004,-2.6953124e-06"
       orientation="-22,0"
       id="guide4120" />
    <sodipodi:guide
       position="22.000004,21.999997"
       orientation="0,-22"
       id="guide4122" />
    <sodipodi:guide
       position="2.0000042,19.999997"
       orientation="18,0"
       id="guide4124" />
    <sodipodi:guide
       position="20.000004,1.9999973"
       orientation="-18,0"
       id="guide4128" />
    <sodipodi:guide
       position="20.000004,19.999997"
       orientation="0,-18"
       id="guide4130" />
    <sodipodi:guide
       position="3.0000042,18.999997"
       orientation="16,0"
       id="guide4132" />
    <sodipodi:guide
       position="3.0000042,2.9999973"
       orientation="0,16"
       id="guide4134" />
    <sodipodi:guide
       position="19.000004,2.9999973"
       orientation="-16,0"
       id="guide4136" />
    <sodipodi:guide
       position="45,19"
       orientation="0,-16"
       id="guide4138" />
    <inkscape:grid
       type="xygrid"
       id="grid4140"
       empspacing="5"
       visible="true"
       enabled="true"
       snapvisiblegridlinesonly="true" />
  </sodipodi:namedview>
  <metadata
     id="metadata3765">
    <rdf:RDF>
      <cc:Work
         rdf:about="">
        <dc:format>image/svg+xml</dc:format>
        <dc:type
           rdf:resource="http://purl.org/dc/dcmitype/StillImage" />
        <dc:title></dc:title>
      </cc:Work>
    </rdf:RDF>
  </metadata>
  <g
     inkscape:label="Capa 1"
     inkscape:groupmode="layer"
     id="layer1"
     transform="translate(-553.72253,-583.11926)">
    <g
       transform="translate(98.74824,50.97997)"
       id="layer1-0"
       inkscape:label="Capa 1" />
    <g
       transform="matrix(1.3333333,0,0,1.3333333,-42.243186,-134.06646)"
       id="layer1-0-5"
       inkscape:label="Capa 1" />
    <path
       style="fill:#da4453;fill-opacity:1;stroke:none;display:inline"
       d="M 4 3 L 4 4 L 4.5234375 4 L 6.6484375 6 L 4 6 L 4 7 L 4.5234375 7 L 6.6484375 9 L 4 9 L 4 10 L 4.5234375 10 L 6.6484375 12 L 4 12 L 4 13 L 4.5234375 13 L 6.6484375 15 L 4 15 L 4 16 L 4.5234375 16 L 6.6484375 18 L 4 18 L 4 19 L 18 19 L 18 18 L 16.9375 18 L 14.773438 16 L 18 16 L 18 15 L 16.9375 15 L 14.773438 13 L 18 13 L 18 12 L 16.9375 12 L 14.773438 10 L 18 10 L 18 9 L 16.9375 9 L 14.773438 7 L 18 7 L 18 6 L 16.9375 6 L 14.773438 4 L 18 4 L 18 3 L 4 3 z M 5.8652344 4 L 9.328125 4 L 11.535156 6 L 7.9902344 6 L 5.8652344 4 z M 10.667969 4 L 13.433594 4 L 15.595703 6 L 12.875 6 L 10.667969 4 z M 5.8652344 7 L 9.328125 7 L 11.535156 9 L 7.9902344 9 L 5.8652344 7 z M 10.667969 7 L 13.433594 7 L 15.595703 9 L 12.875 9 L 10.667969 7 z M 5.8652344 10 L 9.328125 10 L 11.535156 12 L 7.9902344 12 L 5.8652344 10 z M 10.667969 10 L 13.433594 10 L 15.595703 12 L 12.875 12 L 10.667969 10 z M 5.8652344 13 L 9.328125 13 L 11.535156 15 L 7.9902344 15 L 5.8652344 13 z M 10.667969 13 L 13.433594 13 L 15.595703 15 L 12.875 15 L 10.667969 13 z M 5.8652344 16 L 9.328125 16 L 11.535156 18 L 7.9902344 18 L 5.8652344 16 z M 10.667969 16 L 13.433594 16 L 15.595703 18 L 12.875 18 L 10.667969 16 z "
       transform="translate(553.72253,583.11926)"
       id="rect4197" />
    <rect
       style="color:#000000;display:inline;overflow:visible;visibility:visible;opacity:1;fill:#4d4d4d;fill-opacity:1;fill-rule:evenodd;stroke:none;stroke-width:5;stroke-linecap:square;stroke-linejoin:miter;stroke-miterlimit:4;stroke-dasharray:none;stroke-dashoffset:0;stroke-opacity:1;marker:none;marker-start:none;marker-mid:none;marker-end:none;enable-background:accumulate"
       id="rect8276"
       width="1.0000042"
       height="16"
       x="556.72253"
       y="586.11926" />
    <rect
       y="586.11926"
       x="571.72253"
       height="16"
       width="1.0000042"
       id="rect8278"
       style="color:#000000;display:inline;overflow:visible;visibility:visible;opacity:1;fill:#4d4d4d;fill-opacity:1;fill-rule:evenodd;stroke:none;stroke-width:5;stroke-linecap:square;stroke-linejoin:miter;stroke-miterlimit:4;stroke-dasharray:none;stroke-dashoffset:0;stroke-opacity:1;marker:none;marker-start:none;marker-mid:none;marker-end:none;enable-background:accumulate" />
  </g>
</svg>
