<?xml version="1.0" encoding="UTF-8" standalone="no"?>
<svg
   xmlns:dc="http://purl.org/dc/elements/1.1/"
   xmlns:cc="http://creativecommons.org/ns#"
   xmlns:rdf="http://www.w3.org/1999/02/22-rdf-syntax-ns#"
   xmlns:svg="http://www.w3.org/2000/svg"
   xmlns="http://www.w3.org/2000/svg"
   xmlns:sodipodi="http://sodipodi.sourceforge.net/DTD/sodipodi-0.dtd"
   xmlns:inkscape="http://www.inkscape.org/namespaces/inkscape"
   viewBox="0 0 22 22"
   id="svg2"
   version="1.1"
   inkscape:version="0.91 r13725"
   sodipodi:docname="imagebox.svg">
  <metadata
     id="metadata10">
    <rdf:RDF>
      <cc:Work
         rdf:about="">
        <dc:format>image/svg+xml</dc:format>
        <dc:type
           rdf:resource="http://purl.org/dc/dcmitype/StillImage" />
        <dc:title />
      </cc:Work>
    </rdf:RDF>
  </metadata>
  <sodipodi:namedview
     pagecolor="#ffffff"
     bordercolor="#666666"
     borderopacity="1"
     objecttolerance="10"
     gridtolerance="10"
     guidetolerance="10"
     inkscape:pageopacity="0"
     inkscape:pageshadow="2"
     inkscape:window-width="640"
     inkscape:window-height="480"
     id="namedview8"
     showgrid="true"
     inkscape:zoom="80.726014"
     inkscape:cx="6.881438"
     inkscape:cy="14.064601"
     inkscape:current-layer="svg2"
     showguides="true"
     inkscape:guide-bbox="true">
    <inkscape:grid
       type="xygrid"
       id="grid4233" />
  </sodipodi:namedview>
  <defs
     id="defs3051">
    <style
       type="text/css"
       id="current-color-scheme">
      .ColorScheme-Text {
        color:#4d4d4d;
      }
      </style>
  </defs>
  <path
     style="color:#4d4d4d;fill:#4d4d4d;fill-opacity:1;stroke:none;image-rendering:auto"
     d="m 3,3 0,16 16,0 0,-16 z m 1,1 14,0 0,10.654111 -3.97467,-3.970882 -0.0078,0.0078 -0.0059,-0.0078 -3.450814,3.396306 -0.9914241,-1.028413 -0.0059,0.0078 -0.00781,-0.0078 L 4.5075934,18 4,18 Z M 7.5,5 C 6.115,5 5,6.115 5,7.5 5,8.885 6.115,10 7.5,10 8.885,10 10,8.885 10,7.5 10,6.115 8.885,5 7.5,5 Z m 0,0.8 C 8.331,5.8 9.2,6.669 9.2,7.5 9.2,8.331 8.331,9.2 7.5,9.2 6.669,9.2 5.8,8.331 5.8,7.5 5.8,6.669 6.669,5.8 7.5,5.8 Z M 14,11.40625 18,15.443359 18,18 5.3142664,18 9.456496,13.898726 10.508289,14.91548 Z"
     id="path6"
     inkscape:connector-curvature="0"
     sodipodi:nodetypes="ccccccccccccccccccssssssssssccccccc" />
</svg>
